<svg xmlns="http://www.w3.org/2000/svg" viewBox="0 0 64 64" aria-labelledby="title"
aria-describedby="desc" role="img" xmlns:xlink="http://www.w3.org/1999/xlink"
width="16" height="16">
  <title>Ambulance Siren</title>
  <desc>A color styled icon from Orion Icon Library.</desc>
  <path data-name="layer2"
  d="M52 56V40a20 20 0 0 0-40 0v16z" fill="#f4475d"></path>
  <path data-name="opacity" d="M16 41.333V56h5V41.333C21 31.25 25.95 23 32 23c-8.8 0-16 8.25-16 18.333z"
  fill="#000064" opacity=".25"></path>
  <path data-name="opacity" d="M32 23c6.05 0 11 8.25 11 18.333V56h5V41.333C48 31.25 40.8 23 32 23z"
  fill="#000064" opacity=".16"></path>
  <circle data-name="opacity" cx="32" cy="40" r="3" fill="#000064"
  opacity=".16"></circle>
  <path data-name="layer1" d="M8 56h48a6 6 0 0 1 6 6H2a6 6 0 0 1 6-6z"
  fill="#536897"></path>
  <path data-name="opacity" d="M35 30a8.729 8.729 0 0 1 .264.979A26.046 26.046 0 0 1 37 40.444V56h8V40.444a19.068 19.068 0 0 0-5.465-13.294C36.625 25.508 33.469 25.407 35 30z"
  fill="#fff" opacity=".5"></path>
  <path data-name="opacity" d="M21.96 26.96c-3.83 3.982-1.124 8.8.377 7.94 1.44-.648 2.352-2.8 3.7-3.858 1.058-1.353 3.21-2.265 3.858-3.7.861-1.507-3.953-4.212-7.935-.382z"
  fill="#fff" opacity=".75"></path>
  <circle data-name="stroke" cx="32" cy="40" r="3" fill="none" stroke="#2e4369"
  stroke-linecap="round" stroke-miterlimit="10" stroke-width="2" stroke-linejoin="round"></circle>
  <path data-name="stroke" fill="none" stroke="#2e4369" stroke-linecap="round"
  stroke-miterlimit="10" stroke-width="2" d="M32 43v13M2 15l9 9m9-21l4 12m38 0l-9 9M44 3l-4 12M8 56h48a6 6 0 0 1 6 6H2a6 6 0 0 1 6-6z"
  stroke-linejoin="round"></path>
  <path data-name="stroke" d="M12 56V40a20.059 20.059 0 0 1 20-20 20.059 20.059 0 0 1 20 20v16"
  fill="none" stroke="#2e4369" stroke-linecap="round" stroke-miterlimit="10"
  stroke-width="2" stroke-linejoin="round"></path>
</svg>